<svg width="140" height="30" viewBox="0 0 140 30" fill="none" xmlns="http://www.w3.org/2000/svg">
<g clip-path="url(#clip0_2019_1768)">
<path fill-rule="evenodd" clip-rule="evenodd" d="M19.7651 21.5448L29.8975 29.1142L32.9539 24.8913L22.6913 17.3923C21.6836 18.7833 20.7728 20.1539 19.7651 21.5448Z" fill="#032B44"/>
<path fill-rule="evenodd" clip-rule="evenodd" d="M32.9536 5.04736C26.571 6.74485 19.9271 11.9993 16.795 20.0586C15.4497 15.7035 13.3557 12.7736 10.6802 10.9501L14.2764 8.38064C15.7232 9.49778 16.8943 11.0454 17.8266 12.965C21.7752 8.1085 27.3092 5.67569 32.9536 5.04736Z" fill="#04D89D"/>
<path fill-rule="evenodd" clip-rule="evenodd" d="M32.9355 5.18848C27.2282 7.64878 21.755 13.0358 19.6972 19.0316L17.6613 20.3116C17.5374 20.3894 21.164 9.09443 32.9355 5.18848Z" fill="#032B44"/>
<path fill-rule="evenodd" clip-rule="evenodd" d="M13.9539 0.622556C17.8054 0.622556 21.2924 2.18314 23.8174 4.70611L20.2859 8.51396C18.6994 6.92348 16.5054 5.9394 14.0812 5.9394C9.24086 5.9394 5.31709 9.86339 5.31709 14.7035C5.31709 19.5439 9.24107 23.4677 14.0812 23.4677C16.9226 23.4677 19.4474 22.1153 21.0488 20.0194L25.4423 22.497C22.9249 26.1415 18.7186 28.5302 13.9539 28.5302C6.24741 28.5302 0 22.2828 0 14.5762C0 6.86973 6.24741 0.622556 13.9539 0.622556Z" fill="#032B44"/>
<path d="M41.874 10.0019L40.9579 7.30328C41.4365 7.00609 42.0596 6.75037 42.8273 6.53586C43.5946 6.32136 44.3498 6.21387 45.0926 6.21387C46.7431 6.21387 47.9274 6.6101 48.6454 7.40235C49.3634 8.19457 49.7223 9.37457 49.7223 10.9429V17.6523H46.5037V16.6371C45.959 17.413 44.985 17.8008 43.5821 17.8008C42.5423 17.8008 41.6964 17.4914 41.0444 16.8724C40.3925 16.2534 40.0664 15.3909 40.0664 14.2851C40.0664 13.0802 40.4419 12.1641 41.1929 11.537C41.9439 10.9099 42.9053 10.5963 44.0771 10.5963C45.0015 10.5963 45.7276 10.8026 46.256 11.2152C46.322 9.94435 45.8103 9.30878 44.7209 9.30878C43.9947 9.30878 43.0458 9.53992 41.874 10.0019ZM44.8451 14.7061C45.5052 14.7061 45.9756 14.5162 46.2564 14.1366V13.4434C45.9098 13.1959 45.4394 13.072 44.8451 13.072C44.5315 13.072 44.2755 13.1463 44.0776 13.2947C43.8795 13.4434 43.7805 13.6497 43.7805 13.9136C43.7805 14.1612 43.8795 14.3552 44.0776 14.4955C44.2758 14.6357 44.5315 14.7061 44.8451 14.7061ZM57.744 14.3596C57.744 14.145 57.5418 13.9674 57.1374 13.8274C56.733 13.6871 56.2421 13.5469 55.6643 13.4063C55.0865 13.2661 54.5088 13.0846 53.9311 12.8616C53.3534 12.6389 52.8625 12.2716 52.458 11.7599C52.0536 11.2482 51.8514 10.6127 51.8514 9.8535C51.8514 8.69807 52.264 7.80264 53.0893 7.16707C53.9145 6.53153 54.9543 6.21387 56.2088 6.21387C58.173 6.21387 59.7327 6.71735 60.8881 7.72407L59.5018 10.3485C58.4948 9.65535 57.4717 9.30878 56.4317 9.30878C56.1676 9.30878 55.9571 9.35842 55.8005 9.45721C55.6435 9.55628 55.5653 9.67171 55.5653 9.80385C55.5653 10.0019 55.7675 10.1711 56.1719 10.3114C56.5763 10.4517 57.0673 10.5879 57.645 10.7199C58.2227 10.852 58.8004 11.0294 59.3781 11.2524C59.9558 11.4751 60.4468 11.8341 60.8513 12.3292C61.2557 12.8243 61.4579 13.4434 61.4579 14.186C61.4579 15.3248 61.0245 16.2369 60.158 16.9218C59.2914 17.6068 58.1236 17.9493 56.6546 17.9493C55.5653 17.9493 54.5214 17.7222 53.5226 17.2684C52.5241 16.8146 51.8763 16.3564 51.5791 15.8944L53.3368 13.468C53.6834 13.8146 54.2281 14.1323 54.9709 14.4212C55.7137 14.71 56.3573 14.8546 56.9019 14.8546C57.463 14.8546 57.744 14.6895 57.744 14.3596ZM69.108 14.3596C69.108 14.145 68.9058 13.9674 68.5014 13.8274C68.097 13.6871 67.606 13.5469 67.0283 13.4063C66.4506 13.2661 65.8728 13.0846 65.2951 12.8616C64.7174 12.6389 64.2265 12.2716 63.8221 11.7599C63.4176 11.2482 63.2154 10.6127 63.2154 9.8535C63.2154 8.69807 63.628 7.80264 64.4533 7.16707C65.2785 6.53153 66.3183 6.21387 67.5728 6.21387C69.5371 6.21387 71.0967 6.71735 72.2523 7.72407L70.8658 10.3485C69.8588 9.65535 68.8357 9.30878 67.7957 9.30878C67.5316 9.30878 67.3211 9.35842 67.1645 9.45721C67.0075 9.55628 66.9292 9.67171 66.9292 9.80385C66.9292 10.0019 67.1314 10.1711 67.5358 10.3114C67.9403 10.4517 68.4313 10.5879 69.009 10.7199C69.5867 10.852 70.1644 11.0294 70.7421 11.2524C71.3198 11.4751 71.8108 11.8341 72.2151 12.3292C72.6194 12.8243 72.8215 13.4434 72.8215 14.186C72.8215 15.3248 72.3887 16.2369 71.5223 16.9218C70.6553 17.6068 69.4876 17.9493 68.0186 17.9493C66.9292 17.9493 65.8854 17.7222 64.8866 17.2684C63.8881 16.8146 63.2402 16.3564 62.9431 15.8944L64.7008 13.468C65.0473 13.8146 65.592 14.1323 66.3349 14.4212C67.0777 14.71 67.7212 14.8546 68.2659 14.8546C68.827 14.8546 69.108 14.6895 69.108 14.3596ZM83.6658 14.0624L84.6808 16.6868C83.5587 17.5284 82.1144 17.9495 80.3487 17.9495C78.5158 17.9495 77.0515 17.413 75.9537 16.3402C74.8558 15.2674 74.3073 13.8479 74.3073 12.0817C74.3073 10.4146 74.8644 9.02 75.9787 7.89764C77.093 6.7752 78.5494 6.21387 80.3487 6.21387C81.8337 6.21387 83.1051 6.70506 84.1616 7.687C85.218 8.66914 85.7458 9.92771 85.7458 11.4628C85.7458 12.2056 85.6716 12.8245 85.523 13.3196H78.1451C78.4751 14.3429 79.3415 14.8546 80.7444 14.8546C81.8501 14.8546 82.8244 14.5904 83.6658 14.0624ZM80.2244 9.30878C79.1187 9.30878 78.3844 9.82042 78.0208 10.8438H82.0316C82.0316 10.4312 81.8708 10.0721 81.5487 9.76692C81.2266 9.46157 80.7858 9.30878 80.2244 9.30878ZM93.148 14.3596C93.148 14.145 92.9458 13.9674 92.5416 13.8274C92.1373 13.6871 91.6465 13.5469 91.0687 13.4063C90.4908 13.2661 89.913 13.0846 89.3351 12.8616C88.758 12.6389 88.2666 12.2716 87.8623 11.7599C87.458 11.2482 87.2558 10.6127 87.2558 9.8535C87.2558 8.69807 87.668 7.80264 88.4937 7.16707C89.3187 6.53153 90.3587 6.21387 91.613 6.21387C93.5773 6.21387 95.1373 6.71735 96.2923 7.72407L94.9058 10.3485C93.8994 9.65535 92.8758 9.30878 91.8358 9.30878C91.5716 9.30878 91.3615 9.35842 91.2044 9.45721C91.048 9.55628 90.9694 9.67171 90.9694 9.80385C90.9694 10.0019 91.1716 10.1711 91.5758 10.3114C91.9808 10.4517 92.4716 10.5879 93.0494 10.7199C93.6273 10.852 94.2044 11.0294 94.7823 11.2524C95.3601 11.4751 95.8508 11.8341 96.2558 12.3292C96.6601 12.8243 96.8623 13.4434 96.8623 14.186C96.8623 15.3248 96.4287 16.2369 95.5623 16.9218C94.6958 17.6068 93.528 17.9493 92.0587 17.9493C90.9694 17.9493 89.9258 17.7222 88.9266 17.2684C87.9287 16.8146 87.2808 16.3564 86.9837 15.8944L88.7408 13.468C89.088 13.8146 89.6323 14.1323 90.3751 14.4212C91.118 14.71 91.7616 14.8546 92.3065 14.8546C92.8673 14.8546 93.148 14.6895 93.148 14.3596ZM104.512 14.3596C104.512 14.145 104.31 13.9674 103.906 13.8274C103.502 13.6871 103.01 13.5469 102.432 13.4063C101.855 13.2661 101.277 13.0846 100.699 12.8616C100.122 12.6389 99.6308 12.2716 99.2266 11.7599C98.8216 11.2482 98.6194 10.6127 98.6194 9.8535C98.6194 8.69807 99.0323 7.80264 99.8573 7.16707C100.683 6.53153 101.722 6.21387 102.977 6.21387C104.942 6.21387 106.501 6.71735 107.657 7.72407L106.27 10.3485C105.263 9.65535 104.24 9.30878 103.2 9.30878C102.936 9.30878 102.725 9.35842 102.569 9.45721C102.412 9.55628 102.334 9.67171 102.334 9.80385C102.334 10.0019 102.536 10.1711 102.94 10.3114C103.344 10.4517 103.836 10.5879 104.413 10.7199C104.991 10.852 105.569 11.0294 106.147 11.2524C106.724 11.4751 107.215 11.8341 107.619 12.3292C108.024 12.8243 108.226 13.4434 108.226 14.186C108.226 15.3248 107.793 16.2369 106.927 16.9218C106.059 17.6068 104.892 17.9493 103.423 17.9493C102.334 17.9493 101.289 17.7222 100.291 17.2684C99.2923 16.8146 98.6444 16.3564 98.3473 15.8944L100.105 13.468C100.452 13.8146 100.997 14.1323 101.739 14.4212C102.482 14.71 103.126 14.8546 103.67 14.8546C104.232 14.8546 104.512 14.6895 104.512 14.3596Z" fill="#032B44"/>
<path d="M109.383 15.2779C109.383 15.0168 109.431 14.7694 109.527 14.5358C109.623 14.3021 109.754 14.1028 109.919 13.9379C110.097 13.7593 110.304 13.6218 110.537 13.5256C110.771 13.4294 111.018 13.3813 111.279 13.3813C111.54 13.3813 111.788 13.4294 112.021 13.5256C112.255 13.6218 112.454 13.7593 112.619 13.9379C112.798 14.1028 112.935 14.3021 113.031 14.5358C113.128 14.7694 113.176 15.0168 113.176 15.2779C113.176 15.539 113.128 15.7864 113.031 16.0201C112.935 16.2536 112.798 16.4598 112.619 16.6385C112.454 16.8034 112.255 16.9339 112.021 17.0301C111.788 17.1263 111.54 17.1745 111.279 17.1745C111.018 17.1745 110.771 17.1263 110.537 17.0301C110.304 16.9339 110.097 16.8034 109.919 16.6385C109.754 16.4598 109.623 16.2536 109.527 16.0201C109.431 15.7864 109.383 15.539 109.383 15.2779Z" fill="#F38E00"/>
<path d="M115.42 7.03205H118.388V8.39265H118.43C118.526 8.20022 118.663 8.00779 118.842 7.81543C119.021 7.623 119.233 7.45122 119.481 7.30008C119.728 7.14886 120.01 7.02518 120.326 6.92898C120.642 6.83278 120.986 6.78467 121.357 6.78467C122.141 6.78467 122.773 6.90836 123.253 7.15572C123.735 7.38936 124.106 7.71922 124.367 8.14522C124.641 8.57129 124.827 9.07293 124.923 9.65015C125.019 10.2274 125.068 10.8526 125.068 11.5261V17.0509H121.976V12.1445C121.976 11.8559 121.961 11.5604 121.934 11.2581C121.921 10.942 121.858 10.6534 121.748 10.3923C121.653 10.1311 121.494 9.91815 121.274 9.75322C121.068 9.58829 120.766 9.50586 120.368 9.50586C119.969 9.50586 119.646 9.58143 119.398 9.73257C119.151 9.87 118.958 10.0624 118.821 10.3098C118.698 10.5434 118.615 10.8114 118.574 11.1138C118.533 11.4161 118.512 11.7322 118.512 12.0621V17.0509H115.42V7.03205ZM137.771 16.2056C137.771 18.1022 137.29 19.5384 136.328 20.5141C135.38 21.5036 133.93 21.9984 131.978 21.9984C131.085 21.9984 130.205 21.8954 129.339 21.6892C128.473 21.4968 127.676 21.112 126.948 20.5348L128.659 17.9785C129.14 18.3771 129.642 18.6931 130.164 18.9268C130.7 19.1604 131.284 19.2773 131.916 19.2773C132.865 19.2773 133.558 19.0436 133.998 18.5764C134.452 18.1229 134.678 17.5387 134.678 16.8241V15.8552H134.638C134.28 16.3362 133.833 16.6798 133.298 16.8859C132.775 17.0784 132.281 17.1746 131.813 17.1746C131.071 17.1746 130.398 17.0509 129.793 16.8035C129.188 16.5424 128.666 16.185 128.226 15.7315C127.8 15.2642 127.471 14.7145 127.237 14.0823C127.003 13.4501 126.886 12.7561 126.886 12.0002C126.886 11.3406 126.989 10.6946 127.196 10.0624C127.416 9.43022 127.718 8.87365 128.103 8.39265C128.501 7.91165 128.982 7.52679 129.546 7.23822C130.109 6.93585 130.748 6.78467 131.463 6.78467C131.903 6.78467 132.301 6.83278 132.658 6.92898C133.029 7.02518 133.359 7.14886 133.648 7.30008C133.936 7.45122 134.184 7.623 134.39 7.81543C134.596 7.99407 134.761 8.17272 134.885 8.35143H134.926V7.03205H137.771V16.2056ZM129.978 11.9796C129.978 12.3094 130.041 12.6256 130.164 12.9279C130.288 13.2165 130.459 13.4776 130.679 13.7113C130.913 13.9311 131.174 14.1098 131.463 14.2472C131.765 14.3846 132.095 14.4534 132.452 14.4534C132.796 14.4534 133.118 14.3846 133.421 14.2472C133.723 14.1098 133.985 13.9311 134.204 13.7113C134.438 13.4776 134.617 13.2165 134.741 12.9279C134.864 12.6256 134.926 12.3094 134.926 11.9796C134.926 11.6498 134.864 11.3406 134.741 11.0519C134.617 10.7496 134.438 10.4885 134.204 10.2686C133.985 10.0349 133.723 9.84943 133.421 9.712C133.118 9.57457 132.796 9.50586 132.452 9.50586C132.095 9.50586 131.765 9.57457 131.463 9.712C131.174 9.84943 130.913 10.0349 130.679 10.2686C130.459 10.4885 130.288 10.7496 130.164 11.0519C130.041 11.3406 129.978 11.6498 129.978 11.9796Z" fill="#032B44"/>
<path d="M42.7927 25.3669C42.6591 25.3669 42.4907 25.3749 42.2876 25.391C42.0898 25.4016 41.8975 25.4337 41.7104 25.4872C41.5287 25.5353 41.3711 25.6128 41.2374 25.7196C41.1091 25.8266 41.045 25.9736 41.045 26.1606C41.045 26.2835 41.0691 26.3904 41.1171 26.4813C41.1706 26.5668 41.2401 26.6389 41.3256 26.6977C41.4111 26.7511 41.5046 26.7913 41.6062 26.818C41.7131 26.8394 41.82 26.8501 41.9268 26.8501C42.1193 26.8501 42.2849 26.818 42.4239 26.7539C42.5682 26.6897 42.6885 26.6042 42.7847 26.4973C42.8808 26.3851 42.9503 26.2568 42.9931 26.1125C43.0412 25.9629 43.0653 25.8052 43.0653 25.6395V25.3669H42.7927ZM43.0653 24.934V24.8378C43.0653 24.1911 42.7446 23.8678 42.1032 23.8678C41.665 23.8678 41.2828 24.0147 40.9568 24.3087L40.6361 23.9319C40.9889 23.5685 41.518 23.3868 42.2235 23.3868C42.4052 23.3868 42.5789 23.4135 42.7446 23.4669C42.9156 23.5204 43.0626 23.6032 43.1855 23.7154C43.3084 23.8224 43.4073 23.9586 43.4821 24.1243C43.557 24.29 43.5943 24.4877 43.5943 24.7176V26.3931C43.5943 26.5374 43.5997 26.6897 43.6104 26.8501C43.6264 27.0051 43.6425 27.1333 43.6585 27.2349H43.1454C43.1294 27.144 43.1161 27.0451 43.1053 26.9382C43.1 26.8314 43.0973 26.7271 43.0973 26.6256H43.0813C42.9263 26.8768 42.7419 27.0585 42.5281 27.1707C42.3197 27.2776 42.0631 27.3311 41.7585 27.3311C41.5928 27.3311 41.4325 27.307 41.2775 27.2589C41.1225 27.2161 40.9836 27.1494 40.8606 27.0585C40.7431 26.9623 40.6468 26.8474 40.572 26.7138C40.5026 26.5748 40.4678 26.4145 40.4678 26.2328C40.4678 25.9281 40.5453 25.6903 40.7003 25.5192C40.8606 25.3429 41.0583 25.2119 41.2936 25.1264C41.5341 25.0409 41.7879 24.9874 42.0551 24.9661C42.3277 24.9447 42.5762 24.934 42.8007 24.934H43.0653ZM47.2064 24.3729C47.1263 24.2179 47.0193 24.0949 46.8858 24.0041C46.7521 23.9132 46.5891 23.8678 46.3967 23.8678C46.3058 23.8678 46.2123 23.8784 46.1161 23.8999C46.0253 23.9212 45.9424 23.9559 45.8676 24.0041C45.7928 24.0468 45.7313 24.1029 45.6832 24.1724C45.6404 24.2419 45.6191 24.3274 45.6191 24.4289C45.6191 24.6054 45.6806 24.7336 45.8035 24.8138C45.9264 24.8939 46.1108 24.9634 46.3566 25.0222L46.8938 25.1505C47.1556 25.2093 47.3721 25.3295 47.5431 25.5112C47.7195 25.6876 47.8077 25.9094 47.8077 26.1766C47.8077 26.3797 47.7649 26.5561 47.6794 26.7057C47.5993 26.8501 47.4897 26.9703 47.3507 27.0665C47.2171 27.1574 47.0621 27.2241 46.8858 27.2669C46.7093 27.3097 46.5303 27.3311 46.3486 27.3311C46.06 27.3311 45.7901 27.2776 45.5389 27.1707C45.2931 27.0585 45.0819 26.8688 44.9056 26.6015L45.3626 26.2889C45.4694 26.4599 45.6031 26.5962 45.7633 26.6977C45.9291 26.7993 46.1241 26.8501 46.3486 26.8501C46.4555 26.8501 46.5624 26.8394 46.6693 26.818C46.7762 26.7913 46.8697 26.7539 46.9498 26.7057C47.0354 26.6523 47.1022 26.5855 47.1503 26.5054C47.2038 26.4251 47.2305 26.3316 47.2305 26.2247C47.2305 26.0376 47.161 25.9041 47.0221 25.8239C46.8831 25.7384 46.7147 25.6716 46.517 25.6235L46.0039 25.5032C45.9398 25.4872 45.8516 25.4604 45.7393 25.4231C45.6324 25.3856 45.5256 25.3295 45.4186 25.2547C45.3171 25.1799 45.2289 25.0836 45.1541 24.9661C45.0793 24.8431 45.0418 24.6935 45.0418 24.5171C45.0418 24.3247 45.0793 24.1564 45.1541 24.0121C45.2343 23.8678 45.3385 23.7502 45.4668 23.6594C45.6003 23.5685 45.75 23.5016 45.9157 23.4589C46.0813 23.4108 46.2524 23.3868 46.4288 23.3868C46.6906 23.3868 46.9338 23.4375 47.1583 23.5391C47.3828 23.6406 47.5565 23.8144 47.6794 24.0601L47.2064 24.3729ZM51.0207 24.3729C50.9406 24.2179 50.8336 24.0949 50.7 24.0041C50.5664 23.9132 50.4034 23.8678 50.211 23.8678C50.1201 23.8678 50.0266 23.8784 49.9304 23.8999C49.8396 23.9212 49.7567 23.9559 49.6818 24.0041C49.6071 24.0468 49.5456 24.1029 49.4975 24.1724C49.4547 24.2419 49.4333 24.3274 49.4333 24.4289C49.4333 24.6054 49.4948 24.7336 49.6178 24.8138C49.7406 24.8939 49.9251 24.9634 50.1709 25.0222L50.7081 25.1505C50.9699 25.2093 51.1863 25.3295 51.3574 25.5112C51.5338 25.6876 51.622 25.9094 51.622 26.1766C51.622 26.3797 51.5792 26.5561 51.4937 26.7057C51.4135 26.8501 51.304 26.9703 51.165 27.0665C51.0314 27.1574 50.8764 27.2241 50.7 27.2669C50.5236 27.3097 50.3446 27.3311 50.1629 27.3311C49.8743 27.3311 49.6043 27.2776 49.3532 27.1707C49.1073 27.0585 48.8962 26.8688 48.7198 26.6015L49.1768 26.2889C49.2837 26.4599 49.4173 26.5962 49.5776 26.6977C49.7433 26.7993 49.9384 26.8501 50.1629 26.8501C50.2698 26.8501 50.3767 26.8394 50.4836 26.818C50.5905 26.7913 50.684 26.7539 50.7641 26.7057C50.8497 26.6523 50.9165 26.5855 50.9646 26.5054C51.018 26.4251 51.0448 26.3316 51.0448 26.2247C51.0448 26.0376 50.9753 25.9041 50.8363 25.8239C50.6973 25.7384 50.529 25.6716 50.3313 25.6235L49.8181 25.5032C49.7541 25.4872 49.6658 25.4604 49.5536 25.4231C49.4467 25.3856 49.3398 25.3295 49.2329 25.2547C49.1314 25.1799 49.0432 25.0836 48.9683 24.9661C48.8936 24.8431 48.8561 24.6935 48.8561 24.5171C48.8561 24.3247 48.8936 24.1564 48.9683 24.0121C49.0486 23.8678 49.1528 23.7502 49.2811 23.6594C49.4146 23.5685 49.5643 23.5016 49.73 23.4589C49.8956 23.4108 50.0667 23.3868 50.2431 23.3868C50.5049 23.3868 50.7481 23.4375 50.9726 23.5391C51.1971 23.6406 51.3708 23.8144 51.4937 24.0601L51.0207 24.3729ZM55.7649 25.0703C55.7649 24.7122 55.6581 24.4236 55.4443 24.2045C55.2305 23.98 54.9312 23.8678 54.5463 23.8678C54.3753 23.8678 54.2096 23.9025 54.0493 23.972C53.889 24.0361 53.7473 24.1243 53.6244 24.2366C53.5068 24.3488 53.4106 24.4771 53.3358 24.6214C53.2663 24.7656 53.2316 24.9153 53.2316 25.0703H55.7649ZM53.2156 25.5032C53.2316 25.6903 53.2771 25.8666 53.3518 26.0324C53.4267 26.198 53.5256 26.3423 53.6485 26.4652C53.7714 26.5829 53.9131 26.6764 54.0733 26.7459C54.2337 26.8153 54.4074 26.8501 54.5945 26.8501C54.8777 26.8501 55.1209 26.7859 55.324 26.6576C55.5324 26.524 55.6901 26.3717 55.797 26.2007L56.2058 26.5374C55.9814 26.8206 55.7328 27.0238 55.4603 27.1466C55.1931 27.2696 54.9045 27.3311 54.5945 27.3311C54.3166 27.3311 54.0573 27.2829 53.8168 27.1868C53.5817 27.0852 53.3786 26.9463 53.2076 26.7699C53.0365 26.5935 52.9002 26.3851 52.7987 26.1446C52.7025 25.9041 52.6544 25.6421 52.6544 25.3589C52.6544 25.0756 52.7025 24.8138 52.7987 24.5733C52.8949 24.3328 53.0285 24.1243 53.1996 23.9479C53.3706 23.7716 53.571 23.6353 53.8008 23.5391C54.0306 23.4375 54.2791 23.3868 54.5463 23.3868C54.8296 23.3868 55.0835 23.4375 55.308 23.5391C55.5324 23.6406 55.7195 23.7769 55.8691 23.9479C56.0241 24.1136 56.1417 24.3114 56.2219 24.5412C56.3021 24.7656 56.3421 25.0061 56.3421 25.2627V25.5032H53.2156ZM59.6905 24.3729C59.6103 24.2179 59.5034 24.0949 59.3698 24.0041C59.2362 23.9132 59.0732 23.8678 58.8808 23.8678C58.7899 23.8678 58.6964 23.8784 58.6002 23.8999C58.5093 23.9212 58.4265 23.9559 58.3517 24.0041C58.2768 24.0468 58.2154 24.1029 58.1673 24.1724C58.1246 24.2419 58.1032 24.3274 58.1032 24.4289C58.1032 24.6054 58.1646 24.7336 58.2876 24.8138C58.4105 24.8939 58.5948 24.9634 58.8407 25.0222L59.3778 25.1505C59.6397 25.2093 59.8562 25.3295 60.0272 25.5112C60.2036 25.6876 60.2918 25.9094 60.2918 26.1766C60.2918 26.3797 60.249 26.5561 60.1635 26.7057C60.0833 26.8501 59.9738 26.9703 59.8348 27.0665C59.7012 27.1574 59.5462 27.2241 59.3698 27.2669C59.1935 27.3097 59.0144 27.3311 58.8327 27.3311C58.5441 27.3311 58.2742 27.2776 58.023 27.1707C57.7771 27.0585 57.5661 26.8688 57.3896 26.6015L57.8466 26.2889C57.9535 26.4599 58.0871 26.5962 58.2475 26.6977C58.4131 26.7993 58.6082 26.8501 58.8327 26.8501C58.9396 26.8501 59.0465 26.8394 59.1533 26.818C59.2603 26.7913 59.3538 26.7539 59.434 26.7057C59.5195 26.6523 59.5863 26.5855 59.6344 26.5054C59.6878 26.4251 59.7146 26.3316 59.7146 26.2247C59.7146 26.0376 59.6451 25.9041 59.5061 25.8239C59.3671 25.7384 59.1988 25.6716 59.0011 25.6235L58.488 25.5032C58.4238 25.4872 58.3356 25.4604 58.2234 25.4231C58.1166 25.3856 58.0096 25.3295 57.9028 25.2547C57.8012 25.1799 57.713 25.0836 57.6382 24.9661C57.5633 24.8431 57.5259 24.6935 57.5259 24.5171C57.5259 24.3247 57.5633 24.1564 57.6382 24.0121C57.7183 23.8678 57.8226 23.7502 57.9508 23.6594C58.0845 23.5685 58.2341 23.5016 58.3998 23.4589C58.5655 23.4108 58.7365 23.3868 58.9128 23.3868C59.1748 23.3868 59.4179 23.4375 59.6424 23.5391C59.8668 23.6406 60.0406 23.8144 60.1635 24.0601L59.6905 24.3729ZM63.5048 24.3729C63.4246 24.2179 63.3177 24.0949 63.1841 24.0041C63.0505 23.9132 62.8875 23.8678 62.6951 23.8678C62.6042 23.8678 62.5107 23.8784 62.4145 23.8999C62.3236 23.9212 62.2408 23.9559 62.166 24.0041C62.0911 24.0468 62.0297 24.1029 61.9816 24.1724C61.9388 24.2419 61.9174 24.3274 61.9174 24.4289C61.9174 24.6054 61.9789 24.7336 62.1018 24.8138C62.2248 24.8939 62.4091 24.9634 62.655 25.0222L63.1921 25.1505C63.454 25.2093 63.6705 25.3295 63.8415 25.5112C64.0178 25.6876 64.1061 25.9094 64.1061 26.1766C64.1061 26.3797 64.0633 26.5561 63.9778 26.7057C63.8976 26.8501 63.7881 26.9703 63.6491 27.0665C63.5155 27.1574 63.3605 27.2241 63.1841 27.2669C63.0078 27.3097 62.8287 27.3311 62.647 27.3311C62.3583 27.3311 62.0885 27.2776 61.8373 27.1707C61.5914 27.0585 61.3803 26.8688 61.2039 26.6015L61.6609 26.2889C61.7678 26.4599 61.9014 26.5962 62.0618 26.6977C62.2274 26.7993 62.4225 26.8501 62.647 26.8501C62.7538 26.8501 62.8608 26.8394 62.9676 26.818C63.0746 26.7913 63.1681 26.7539 63.2483 26.7057C63.3338 26.6523 63.4006 26.5855 63.4487 26.5054C63.5021 26.4251 63.5288 26.3316 63.5288 26.2247C63.5288 26.0376 63.4593 25.9041 63.3204 25.8239C63.1814 25.7384 63.0131 25.6716 62.8153 25.6235L62.3023 25.5032C62.2381 25.4872 62.1499 25.4604 62.0377 25.4231C61.9308 25.3856 61.8239 25.3295 61.7171 25.2547C61.6155 25.1799 61.5273 25.0836 61.4525 24.9661C61.3776 24.8431 61.3402 24.6935 61.3402 24.5171C61.3402 24.3247 61.3776 24.1564 61.4525 24.0121C61.5326 23.8678 61.6368 23.7502 61.7651 23.6594C61.8988 23.5685 62.0484 23.5016 62.2141 23.4589C62.3798 23.4108 62.5508 23.3868 62.7271 23.3868C62.9891 23.3868 63.2322 23.4375 63.4567 23.5391C63.6811 23.6406 63.8548 23.8144 63.9778 24.0601L63.5048 24.3729ZM65.3309 24.3167C65.3309 24.1778 65.3256 24.0388 65.3148 23.8999C65.3095 23.7609 65.3015 23.6219 65.2908 23.4829H65.86V24.0521H65.8761C66.0043 23.833 66.1807 23.6674 66.4051 23.5551C66.635 23.4429 66.8621 23.3868 67.0866 23.3868C67.1881 23.3868 67.295 23.3974 67.4073 23.4189C67.5248 23.4402 67.6371 23.4803 67.744 23.5391C67.8508 23.5925 67.9497 23.67 68.0406 23.7716C68.1368 23.8731 68.217 24.0041 68.2811 24.1644C68.388 23.9239 68.5563 23.7341 68.7861 23.5952C69.0213 23.4562 69.2645 23.3868 69.5157 23.3868C69.9967 23.3868 70.3521 23.515 70.5819 23.7716C70.8118 24.0228 70.9266 24.3835 70.9266 24.8539V27.2349H70.3976V25.0463C70.3976 24.6668 70.3308 24.3755 70.1971 24.1724C70.0635 23.9693 69.815 23.8678 69.4516 23.8678C69.2538 23.8678 69.0881 23.9079 68.9545 23.988C68.8209 24.0629 68.7113 24.1644 68.6258 24.2926C68.5456 24.4209 68.4868 24.5679 68.4494 24.7336C68.4121 24.8939 68.3933 25.0623 68.3933 25.2386V27.2349H67.8642V25.0463C67.8642 24.6668 67.7974 24.3755 67.6638 24.1724C67.5302 23.9693 67.2816 23.8678 66.9182 23.8678C66.8861 23.8678 66.8113 23.8784 66.6938 23.8999C66.5815 23.9212 66.4639 23.98 66.341 24.0762C66.2181 24.1724 66.1058 24.3167 66.0043 24.5091C65.9081 24.7015 65.86 24.9688 65.86 25.3108V27.2349H65.3309V24.3167ZM75.4764 25.0703C75.4764 24.7122 75.37 24.4236 75.1564 24.2045C74.9421 23.98 74.6428 23.8678 74.2578 23.8678C74.0871 23.8678 73.9214 23.9025 73.7614 23.972C73.6007 24.0361 73.4593 24.1243 73.3364 24.2366C73.2186 24.3488 73.1221 24.4771 73.0478 24.6214C72.9778 24.7656 72.9436 24.9153 72.9436 25.0703H75.4764ZM72.9271 25.5032C72.9436 25.6903 72.9886 25.8666 73.0636 26.0324C73.1386 26.198 73.2371 26.3423 73.36 26.4652C73.4836 26.5829 73.625 26.6764 73.785 26.7459C73.9457 26.8153 74.1193 26.8501 74.3064 26.8501C74.5893 26.8501 74.8328 26.7859 75.0357 26.6576C75.2443 26.524 75.4021 26.3717 75.5086 26.2007L75.9178 26.5374C75.6928 26.8206 75.445 27.0238 75.1721 27.1466C74.905 27.2696 74.6164 27.3311 74.3064 27.3311C74.0286 27.3311 73.7693 27.2829 73.5286 27.1868C73.2936 27.0852 73.0907 26.9463 72.9193 26.7699C72.7486 26.5935 72.6121 26.3851 72.5107 26.1446C72.4143 25.9041 72.3664 25.6421 72.3664 25.3589C72.3664 25.0756 72.4143 24.8138 72.5107 24.5733C72.6064 24.3328 72.74 24.1243 72.9114 23.9479C73.0821 23.7716 73.2828 23.6353 73.5128 23.5391C73.7421 23.4375 73.9907 23.3868 74.2578 23.3868C74.5414 23.3868 74.795 23.4375 75.02 23.5391C75.2443 23.6406 75.4314 23.7769 75.5807 23.9479C75.7357 24.1136 75.8536 24.3114 75.9336 24.5412C76.0136 24.7656 76.0543 25.0061 76.0543 25.2627V25.5032H72.9271ZM77.9193 23.4829C77.93 23.5845 77.935 23.6861 77.935 23.7876C77.9407 23.8838 77.9436 23.9827 77.9436 24.0842H77.9593C78.0178 23.9827 78.0928 23.8891 78.1836 23.8036C78.2743 23.7181 78.3764 23.646 78.4886 23.5872C78.6007 23.5231 78.7186 23.4749 78.8414 23.4429C78.9693 23.4055 79.095 23.3868 79.2178 23.3868C79.6993 23.3868 80.0543 23.515 80.2843 23.7716C80.5143 24.0228 80.6286 24.3835 80.6286 24.8539V27.2349H80.1V25.1585C80.1 24.7416 80.0278 24.4236 79.8836 24.2045C79.7393 23.98 79.4721 23.8678 79.0814 23.8678C79.055 23.8678 78.98 23.8784 78.8571 23.8999C78.7343 23.9212 78.6036 23.98 78.4643 24.0762C78.3307 24.1724 78.2107 24.3167 78.1036 24.5091C77.9964 24.7015 77.9436 24.9688 77.9436 25.3108V27.2349H77.4143V24.3087C77.4143 24.2071 77.4086 24.0789 77.3978 23.9239C77.3928 23.7689 77.385 23.6219 77.3743 23.4829H77.9193ZM84.21 23.964H83.1271V26.1766C83.1271 26.3156 83.1407 26.4305 83.1678 26.5214C83.1943 26.6069 83.2314 26.6737 83.28 26.7218C83.3278 26.7699 83.3843 26.8046 83.4478 26.826C83.5178 26.842 83.5921 26.8501 83.6728 26.8501C83.7636 26.8501 83.8571 26.8367 83.9536 26.81C84.0493 26.7832 84.1378 26.7485 84.2178 26.7057L84.2421 27.1948C84.0443 27.2856 83.8064 27.3311 83.5286 27.3311C83.4264 27.3311 83.32 27.3177 83.2078 27.291C83.1007 27.2643 83.0021 27.2135 82.9107 27.1386C82.82 27.0639 82.745 26.9623 82.6864 26.834C82.6278 26.7057 82.5986 26.5374 82.5986 26.3289V23.964H81.805V23.4829H82.5986V22.4247H83.1271V23.4829H84.21V23.964ZM88.285 25.3589C88.285 25.5674 88.3171 25.7624 88.3814 25.9441C88.4507 26.1259 88.5471 26.2835 88.67 26.4171C88.7928 26.5508 88.94 26.6576 89.1107 26.7378C89.2871 26.8126 89.485 26.8501 89.7043 26.8501C89.9178 26.8501 90.1157 26.8126 90.2971 26.7378C90.4843 26.6576 90.645 26.5508 90.7786 26.4171C90.9121 26.2835 91.0164 26.1259 91.0907 25.9441C91.1657 25.7624 91.2036 25.5674 91.2036 25.3589C91.2036 25.1505 91.1657 24.9554 91.0907 24.7737C91.0164 24.5919 90.9121 24.4343 90.7786 24.3007C90.645 24.1671 90.4843 24.0629 90.2971 23.988C90.1157 23.9079 89.9178 23.8678 89.7043 23.8678C89.485 23.8678 89.2871 23.9079 89.1107 23.988C88.94 24.0629 88.7928 24.1671 88.67 24.3007C88.5471 24.4343 88.4507 24.5919 88.3814 24.7737C88.3171 24.9554 88.285 25.1505 88.285 25.3589ZM91.7086 27.2349H91.1793V26.6096H91.1636C91.0778 26.7378 90.9764 26.8474 90.8586 26.9382C90.7407 27.0291 90.6178 27.1039 90.49 27.1627C90.3614 27.2215 90.2278 27.2643 90.0893 27.291C89.955 27.3177 89.8271 27.3311 89.7043 27.3311C89.41 27.3311 89.14 27.2829 88.8943 27.1868C88.6543 27.0852 88.4457 26.9463 88.2693 26.7699C88.0928 26.5935 87.9536 26.3851 87.8521 26.1446C87.7557 25.9041 87.7078 25.6421 87.7078 25.3589C87.7078 25.0756 87.7557 24.8138 87.8521 24.5733C87.9536 24.3328 88.0928 24.1243 88.2693 23.9479C88.4457 23.7716 88.6543 23.6353 88.8943 23.5391C89.14 23.4375 89.41 23.3868 89.7043 23.3868C89.8271 23.3868 89.955 23.4001 90.0893 23.4269C90.2278 23.4536 90.3614 23.4964 90.49 23.5551C90.6178 23.6139 90.7407 23.6887 90.8586 23.7796C90.9764 23.8704 91.0778 23.98 91.1636 24.1083H91.1793V21.1741H91.7086V27.2349ZM96.4807 25.3589C96.4807 25.1505 96.4464 24.9554 96.3771 24.7737C96.3128 24.5919 96.2193 24.4343 96.0964 24.3007C95.9736 24.1671 95.8236 24.0629 95.6471 23.988C95.4764 23.9079 95.2814 23.8678 95.0621 23.8678C94.8428 23.8678 94.645 23.9079 94.4686 23.988C94.2978 24.0629 94.1507 24.1671 94.0278 24.3007C93.91 24.4343 93.8164 24.5919 93.7471 24.7737C93.6828 24.9554 93.6514 25.1505 93.6514 25.3589C93.6514 25.5674 93.6828 25.7624 93.7471 25.9441C93.8164 26.1259 93.91 26.2835 94.0278 26.4171C94.1507 26.5508 94.2978 26.6576 94.4686 26.7378C94.645 26.8126 94.8428 26.8501 95.0621 26.8501C95.2814 26.8501 95.4764 26.8126 95.6471 26.7378C95.8236 26.6576 95.9736 26.5508 96.0964 26.4171C96.2193 26.2835 96.3128 26.1259 96.3771 25.9441C96.4464 25.7624 96.4807 25.5674 96.4807 25.3589ZM97.0586 25.3589C97.0586 25.6421 97.0071 25.9041 96.9057 26.1446C96.81 26.3851 96.6736 26.5935 96.4971 26.7699C96.3207 26.9463 96.1093 27.0852 95.8636 27.1868C95.6236 27.2829 95.3557 27.3311 95.0621 27.3311C94.7736 27.3311 94.5064 27.2829 94.2607 27.1868C94.02 27.0852 93.8114 26.9463 93.635 26.7699C93.4586 26.5935 93.32 26.3851 93.2178 26.1446C93.1221 25.9041 93.0736 25.6421 93.0736 25.3589C93.0736 25.0756 93.1221 24.8138 93.2178 24.5733C93.32 24.3328 93.4586 24.1243 93.635 23.9479C93.8114 23.7716 94.02 23.6353 94.2607 23.5391C94.5064 23.4375 94.7736 23.3868 95.0621 23.3868C95.3557 23.3868 95.6236 23.4375 95.8636 23.5391C96.1093 23.6353 96.3207 23.7716 96.4971 23.9479C96.6736 24.1243 96.81 24.3328 96.9057 24.5733C97.0071 24.8138 97.0586 25.0756 97.0586 25.3589ZM98.9243 23.4829C98.935 23.5845 98.9407 23.6861 98.9407 23.7876C98.9457 23.8838 98.9486 23.9827 98.9486 24.0842H98.9643C99.0236 23.9827 99.0978 23.8891 99.1886 23.8036C99.28 23.7181 99.3814 23.646 99.4936 23.5872C99.6057 23.5231 99.7236 23.4749 99.8464 23.4429C99.9743 23.4055 100.1 23.3868 100.223 23.3868C100.704 23.3868 101.059 23.515 101.289 23.7716C101.519 24.0228 101.634 24.3835 101.634 24.8539V27.2349H101.105V25.1585C101.105 24.7416 101.033 24.4236 100.889 24.2045C100.744 23.98 100.477 23.8678 100.087 23.8678C100.06 23.8678 99.985 23.8784 99.8621 23.8999C99.7393 23.9212 99.6086 23.98 99.4693 24.0762C99.3357 24.1724 99.2157 24.3167 99.1086 24.5091C99.0021 24.7015 98.9486 24.9688 98.9486 25.3108V27.2349H98.4193V24.3087C98.4193 24.2071 98.4143 24.0789 98.4036 23.9239C98.3978 23.7689 98.39 23.6219 98.3793 23.4829H98.9243ZM106.193 25.0703C106.193 24.7122 106.086 24.4236 105.872 24.2045C105.659 23.98 105.359 23.8678 104.974 23.8678C104.804 23.8678 104.638 23.9025 104.477 23.972C104.317 24.0361 104.176 24.1243 104.052 24.2366C103.935 24.3488 103.839 24.4771 103.764 24.6214C103.694 24.7656 103.66 24.9153 103.66 25.0703H106.193ZM103.644 25.5032C103.66 25.6903 103.705 25.8666 103.78 26.0324C103.855 26.198 103.954 26.3423 104.076 26.4652C104.199 26.5829 104.341 26.6764 104.501 26.7459C104.661 26.8153 104.836 26.8501 105.023 26.8501C105.306 26.8501 105.549 26.7859 105.752 26.6576C105.961 26.524 106.118 26.3717 106.225 26.2007L106.634 26.5374C106.409 26.8206 106.161 27.0238 105.889 27.1466C105.621 27.2696 105.333 27.3311 105.023 27.3311C104.744 27.3311 104.486 27.2829 104.245 27.1868C104.01 27.0852 103.806 26.9463 103.636 26.7699C103.464 26.5935 103.329 26.3851 103.226 26.1446C103.131 25.9041 103.082 25.6421 103.082 25.3589C103.082 25.0756 103.131 24.8138 103.226 24.5733C103.323 24.3328 103.456 24.1243 103.628 23.9479C103.799 23.7716 103.999 23.6353 104.229 23.5391C104.459 23.4375 104.707 23.3868 104.974 23.3868C105.258 23.3868 105.511 23.4375 105.736 23.5391C105.961 23.6406 106.148 23.7769 106.297 23.9479C106.452 24.1136 106.57 24.3114 106.65 24.5412C106.73 24.7656 106.77 25.0061 106.77 25.2627V25.5032H103.644ZM110.819 24.6534C110.819 24.4877 110.814 24.3194 110.803 24.1484C110.797 23.9774 110.792 23.7556 110.786 23.4829H111.308V24.1804H111.324C111.361 24.0789 111.414 23.9827 111.484 23.8919C111.554 23.7956 111.636 23.7101 111.733 23.6353C111.834 23.5604 111.949 23.5016 112.077 23.4589C112.211 23.4108 112.361 23.3868 112.526 23.3868C112.676 23.3868 112.806 23.4028 112.919 23.4349L112.815 23.9559C112.745 23.9292 112.644 23.9159 112.51 23.9159C112.307 23.9159 112.134 23.9559 111.989 24.0361C111.845 24.1109 111.724 24.2099 111.629 24.3328C111.532 24.4504 111.46 24.5786 111.412 24.7176C111.369 24.8565 111.348 24.9901 111.348 25.1184V27.2349H110.819V24.6534ZM114.595 22.0399C114.595 22.1521 114.555 22.2457 114.474 22.3205C114.394 22.39 114.306 22.4247 114.21 22.4247C114.114 22.4247 114.026 22.39 113.946 22.3205C113.865 22.2457 113.825 22.1521 113.825 22.0399C113.825 21.9277 113.865 21.8369 113.946 21.7674C114.026 21.6925 114.114 21.6551 114.21 21.6551C114.306 21.6551 114.394 21.6925 114.474 21.7674C114.555 21.8369 114.595 21.9277 114.595 22.0399ZM114.474 27.2349H113.946V23.4829H114.474V27.2349ZM116.536 25.3108C116.536 25.5086 116.571 25.6956 116.641 25.872C116.716 26.043 116.815 26.1954 116.938 26.3289C117.066 26.4572 117.213 26.5614 117.379 26.6416C117.549 26.7164 117.734 26.7539 117.931 26.7539C118.124 26.7539 118.306 26.7191 118.477 26.6496C118.654 26.5801 118.808 26.4839 118.942 26.361C119.076 26.2328 119.177 26.0804 119.246 25.9041C119.321 25.7277 119.356 25.5299 119.351 25.3108C119.351 25.1131 119.319 24.9286 119.254 24.7576C119.19 24.5813 119.097 24.4289 118.974 24.3007C118.851 24.1671 118.701 24.0629 118.525 23.988C118.349 23.9079 118.151 23.8678 117.931 23.8678C117.734 23.8678 117.549 23.9079 117.379 23.988C117.213 24.0629 117.066 24.1671 116.938 24.3007C116.815 24.4289 116.716 24.5813 116.641 24.7576C116.571 24.9286 116.536 25.1131 116.536 25.3108ZM116.441 27.9884C116.596 28.1969 116.796 28.3626 117.042 28.4855C117.293 28.6138 117.571 28.6779 117.876 28.6779C118.143 28.6779 118.37 28.6378 118.557 28.5576C118.744 28.4829 118.894 28.3786 119.006 28.245C119.124 28.1114 119.206 27.9537 119.254 27.772C119.308 27.5956 119.335 27.4059 119.335 27.2028V26.5294H119.319C119.148 26.7859 118.939 26.9676 118.694 27.0745C118.447 27.1814 118.189 27.2349 117.916 27.2349C117.643 27.2349 117.386 27.1868 117.146 27.0906C116.911 26.9944 116.705 26.8634 116.529 26.6977C116.352 26.5267 116.214 26.3236 116.112 26.0884C116.01 25.8533 115.959 25.5994 115.959 25.3269C115.959 25.0543 116.008 24.8004 116.104 24.5652C116.2 24.3301 116.331 24.1243 116.496 23.9479C116.668 23.7716 116.868 23.6353 117.098 23.5391C117.333 23.4375 117.59 23.3868 117.868 23.3868C117.98 23.3868 118.097 23.3974 118.22 23.4189C118.349 23.4402 118.474 23.4776 118.597 23.5311C118.726 23.5845 118.851 23.6594 118.974 23.7556C119.097 23.8464 119.211 23.964 119.319 24.1083H119.335V23.4829H119.864V27.2028C119.864 27.4059 119.837 27.6224 119.784 27.8521C119.736 28.082 119.636 28.2931 119.487 28.4855C119.343 28.6779 119.139 28.8382 118.878 28.9665C118.616 29.0948 118.274 29.1589 117.851 29.1589C117.477 29.1589 117.144 29.0974 116.849 28.9745C116.556 28.8516 116.289 28.6619 116.048 28.4054L116.441 27.9884ZM121.454 21.1741H121.983V24.0842H121.999C122.058 23.9827 122.133 23.8891 122.224 23.8036C122.314 23.7181 122.416 23.646 122.528 23.5872C122.64 23.5231 122.758 23.4749 122.881 23.4429C123.009 23.4055 123.134 23.3868 123.258 23.3868C123.739 23.3868 124.094 23.515 124.324 23.7716C124.554 24.0228 124.669 24.3835 124.669 24.8539V27.2349H124.139V25.1585C124.139 24.7416 124.067 24.4236 123.923 24.2045C123.779 23.98 123.511 23.8678 123.121 23.8678C123.094 23.8678 123.02 23.8784 122.896 23.8999C122.774 23.9212 122.643 23.98 122.504 24.0762C122.37 24.1724 122.25 24.3167 122.143 24.5091C122.036 24.7015 121.983 24.9688 121.983 25.3108V27.2349H121.454V21.1741ZM128.249 23.964H127.167V26.1766C127.167 26.3156 127.181 26.4305 127.207 26.5214C127.234 26.6069 127.271 26.6737 127.319 26.7218C127.367 26.7699 127.424 26.8046 127.488 26.826C127.557 26.842 127.632 26.8501 127.712 26.8501C127.803 26.8501 127.896 26.8367 127.993 26.81C128.089 26.7832 128.177 26.7485 128.257 26.7057L128.281 27.1948C128.084 27.2856 127.846 27.3311 127.568 27.3311C127.466 27.3311 127.359 27.3177 127.247 27.291C127.14 27.2643 127.041 27.2135 126.951 27.1386C126.86 27.0639 126.785 26.9623 126.726 26.834C126.667 26.7057 126.638 26.5374 126.638 26.3289V23.964H125.844V23.4829H126.638V22.4247H127.167V23.4829H128.249V23.964Z" fill="#032B44"/>
</g>
<defs>
<clipPath id="clip0_2019_1768">
<rect width="140" height="30" fill="white"/>
</clipPath>
</defs>
</svg>
